<?xml version="1.0" encoding="UTF-8" standalone="no"?>
<!DOCTYPE svg PUBLIC "-//W3C//DTD SVG 1.1//EN"
 "http://www.w3.org/Graphics/SVG/1.1/DTD/svg11.dtd">
<!-- Generated by graphviz version 2.40.1 (20161225.0304)
 -->
<!-- Title: %3 Pages: 1 -->
<svg width="403pt" height="348pt"
 viewBox="0.00 0.00 402.63 348.00" xmlns="http://www.w3.org/2000/svg" xmlns:xlink="http://www.w3.org/1999/xlink">
<g id="graph0" class="graph" transform="scale(1 1) rotate(0) translate(4 344)">
<title>%3</title>
<polygon fill="#333333" stroke="transparent" points="-4,4 -4,-344 398.626,-344 398.626,4 -4,4"/>
<text text-anchor="middle" x="197.313" y="-7.2" font-family="Times,serif" font-size="16.00" fill="#ffffff">Network Map</text>
<!-- SW1 -->
<g id="node1" class="node">
<title>SW1</title>
<polygon fill="#006699" stroke="#006699" points="227.1481,-96 138.471,-96 138.471,-24 227.1481,-24 227.1481,-96"/>
<text text-anchor="middle" x="182.8096" y="-55.8" font-family="Helvetica,sans-Serif" font-size="14.00" fill="#ffffff">SW1</text>
</g>
<!-- R2 -->
<g id="node4" class="node">
<title>R2</title>
<polygon fill="#006699" stroke="#006699" points="96.7061,-218 20.913,-218 20.913,-146 96.7061,-146 96.7061,-218"/>
<text text-anchor="middle" x="58.8096" y="-177.8" font-family="Helvetica,sans-Serif" font-size="14.00" fill="#ffffff">R2</text>
</g>
<!-- SW1&#45;&#45;R2 -->
<g id="edge2" class="edge">
<title>SW1&#45;&#45;R2</title>
<path fill="none" stroke="#00ff00" stroke-dasharray="5,2" d="M138.3891,-73.5283C117.3371,-82.032 93.47,-95.0565 77.9932,-114 70.6204,-123.0242 66.0779,-134.715 63.2803,-145.8507"/>
<text text-anchor="middle" x="129.2178" y="-116.8" font-family="Courier,monospace" font-size="14.00" fill="#ffffff"> &#160;&#160;&#160;&#160;&#160;&#160;&#160;&#160;&#160;&#160;&#160;</text>
<text text-anchor="middle" x="38.0762" y="-134.6507" font-family="Courier,monospace" font-size="14.00" fill="#ffffff">Eth0/0</text>
<text text-anchor="middle" x="113.185" y="-62.3283" font-family="Courier,monospace" font-size="14.00" fill="#ffffff">Eth0/2</text>
</g>
<!-- R3 -->
<g id="node5" class="node">
<title>R3</title>
<polygon fill="#006699" stroke="#006699" points="220.7061,-218 144.913,-218 144.913,-146 220.7061,-146 220.7061,-218"/>
<text text-anchor="middle" x="182.8096" y="-177.8" font-family="Helvetica,sans-Serif" font-size="14.00" fill="#ffffff">R3</text>
</g>
<!-- SW1&#45;&#45;R3 -->
<g id="edge3" class="edge">
<title>SW1&#45;&#45;R3</title>
<path fill="none" stroke="#00ff00" stroke-dasharray="5,2" d="M182.8096,-96.2737C182.8096,-111.8667 182.8096,-130.0545 182.8096,-145.6554"/>
<text text-anchor="middle" x="233.2178" y="-116.8" font-family="Courier,monospace" font-size="14.00" fill="#ffffff"> &#160;&#160;&#160;&#160;&#160;&#160;&#160;&#160;&#160;&#160;&#160;</text>
<text text-anchor="middle" x="157.6055" y="-134.4554" font-family="Courier,monospace" font-size="14.00" fill="#ffffff">Eth0/0</text>
<text text-anchor="middle" x="157.6055" y="-99.0737" font-family="Courier,monospace" font-size="14.00" fill="#ffffff">Eth0/3</text>
</g>
<!-- R1 -->
<g id="node6" class="node">
<title>R1</title>
<polygon fill="#006699" stroke="#006699" points="344.7061,-218 268.913,-218 268.913,-146 344.7061,-146 344.7061,-218"/>
<text text-anchor="middle" x="306.8096" y="-177.8" font-family="Helvetica,sans-Serif" font-size="14.00" fill="#ffffff">R1</text>
</g>
<!-- SW1&#45;&#45;R1 -->
<g id="edge1" class="edge">
<title>SW1&#45;&#45;R1</title>
<path fill="none" stroke="#00ff00" stroke-dasharray="5,2" d="M227.0357,-74.5922C247.1349,-83.2232 269.7358,-96.0456 284.8096,-114 292.3889,-123.0278 297.3726,-134.7196 300.6433,-145.855"/>
<text text-anchor="middle" x="344.2178" y="-116.8" font-family="Courier,monospace" font-size="14.00" fill="#ffffff"> &#160;&#160;&#160;&#160;&#160;&#160;&#160;&#160;&#160;&#160;&#160;</text>
<text text-anchor="middle" x="275.4392" y="-134.655" font-family="Courier,monospace" font-size="14.00" fill="#ffffff">Eth0/0</text>
<text text-anchor="middle" x="252.2398" y="-63.3922" font-family="Courier,monospace" font-size="14.00" fill="#ffffff">Eth0/1</text>
</g>
<!-- R4 -->
<g id="node2" class="node">
<title>R4</title>
<polygon fill="#006699" stroke="#006699" points="220.7061,-340 144.913,-340 144.913,-268 220.7061,-268 220.7061,-340"/>
<text text-anchor="middle" x="182.8096" y="-299.8" font-family="Helvetica,sans-Serif" font-size="14.00" fill="#ffffff">R4</text>
</g>
<!-- R5 -->
<g id="node3" class="node">
<title>R5</title>
<polygon fill="#006699" stroke="#006699" points="344.7061,-340 268.913,-340 268.913,-268 344.7061,-268 344.7061,-340"/>
<text text-anchor="middle" x="306.8096" y="-299.8" font-family="Helvetica,sans-Serif" font-size="14.00" fill="#ffffff">R5</text>
</g>
<!-- SW2 -->
<g id="node7" class="node">
<title>SW2</title>
<polygon fill="#006699" stroke="#006699" points="103.1481,-340 14.471,-340 14.471,-268 103.1481,-268 103.1481,-340"/>
<text text-anchor="middle" x="58.8096" y="-299.8" font-family="Helvetica,sans-Serif" font-size="14.00" fill="#ffffff">SW2</text>
</g>
<!-- R2&#45;&#45;SW2 -->
<g id="edge4" class="edge">
<title>R2&#45;&#45;SW2</title>
<path fill="none" stroke="#00ff00" stroke-dasharray="5,2" d="M58.8096,-218.2737C58.8096,-233.8667 58.8096,-252.0545 58.8096,-267.6554"/>
<text text-anchor="middle" x="109.2178" y="-238.8" font-family="Courier,monospace" font-size="14.00" fill="#ffffff"> &#160;&#160;&#160;&#160;&#160;&#160;&#160;&#160;&#160;&#160;&#160;</text>
<text text-anchor="middle" x="29.4048" y="-256.4554" font-family="Courier,monospace" font-size="14.00" fill="#ffffff">Eth0/11</text>
<text text-anchor="middle" x="33.6055" y="-221.0737" font-family="Courier,monospace" font-size="14.00" fill="#ffffff">Eth0/1</text>
</g>
<!-- R3&#45;&#45;R4 -->
<g id="edge5" class="edge">
<title>R3&#45;&#45;R4</title>
<path fill="none" stroke="#00ff00" stroke-dasharray="5,2" d="M182.8096,-218.2737C182.8096,-233.8667 182.8096,-252.0545 182.8096,-267.6554"/>
<text text-anchor="middle" x="233.2178" y="-238.8" font-family="Courier,monospace" font-size="14.00" fill="#ffffff"> &#160;&#160;&#160;&#160;&#160;&#160;&#160;&#160;&#160;&#160;&#160;</text>
<text text-anchor="middle" x="157.6055" y="-256.4554" font-family="Courier,monospace" font-size="14.00" fill="#ffffff">Eth0/0</text>
<text text-anchor="middle" x="157.6055" y="-221.0737" font-family="Courier,monospace" font-size="14.00" fill="#ffffff">Eth0/1</text>
</g>
<!-- R3&#45;&#45;R5 -->
<g id="edge6" class="edge">
<title>R3&#45;&#45;R5</title>
<path fill="none" stroke="#00ff00" stroke-dasharray="5,2" d="M220.8356,-198.4743C245.9191,-210.007 275.7589,-225.2197 284.8096,-236 292.3889,-245.0278 297.3726,-256.7196 300.6433,-267.855"/>
<text text-anchor="middle" x="344.2178" y="-238.8" font-family="Courier,monospace" font-size="14.00" fill="#ffffff"> &#160;&#160;&#160;&#160;&#160;&#160;&#160;&#160;&#160;&#160;&#160;</text>
<text text-anchor="middle" x="275.4392" y="-256.655" font-family="Courier,monospace" font-size="14.00" fill="#ffffff">Eth0/0</text>
<text text-anchor="middle" x="246.0397" y="-187.2743" font-family="Courier,monospace" font-size="14.00" fill="#ffffff">Eth0/2</text>
</g>
</g>
</svg>
