<?xml version="1.0" encoding="UTF-8" standalone="no"?>
<!DOCTYPE svg PUBLIC "-//W3C//DTD SVG 1.1//EN"
 "http://www.w3.org/Graphics/SVG/1.1/DTD/svg11.dtd">
<!-- Generated by graphviz version 2.40.1 (20161225.0304)
 -->
<!-- Title: %3 Pages: 1 -->
<svg width="271pt" height="226pt"
 viewBox="0.00 0.00 270.98 226.00" xmlns="http://www.w3.org/2000/svg" xmlns:xlink="http://www.w3.org/1999/xlink">
<g id="graph0" class="graph" transform="scale(1 1) rotate(0) translate(4 222)">
<title>%3</title>
<polygon fill="#333333" stroke="transparent" points="-4,4 -4,-222 266.9783,-222 266.9783,4 -4,4"/>
<text text-anchor="middle" x="131.4892" y="-7.2" font-family="Times,serif" font-size="16.00" fill="#ffffff">Network Map</text>
<!-- R4 -->
<g id="node1" class="node">
<title>R4</title>
<polygon fill="#006699" stroke="#006699" points="93.0585,-218 17.2654,-218 17.2654,-146 93.0585,-146 93.0585,-218"/>
<text text-anchor="middle" x="55.1619" y="-177.8" font-family="Helvetica,sans-Serif" font-size="14.00" fill="#ffffff">R4</text>
</g>
<!-- R3 -->
<g id="node2" class="node">
<title>R3</title>
<polygon fill="#006699" stroke="#006699" points="155.0585,-96 79.2654,-96 79.2654,-24 155.0585,-24 155.0585,-96"/>
<text text-anchor="middle" x="117.1619" y="-55.8" font-family="Helvetica,sans-Serif" font-size="14.00" fill="#ffffff">R3</text>
</g>
<!-- R3&#45;&#45;R4 -->
<g id="edge1" class="edge">
<title>R3&#45;&#45;R4</title>
<path fill="none" stroke="#00ff00" stroke-dasharray="5,2" d="M79.0365,-85.2171C69.9474,-93.2536 61.4192,-102.9677 56.3455,-114 51.8561,-123.7618 50.4088,-135.176 50.4082,-145.8342"/>
<text text-anchor="middle" x="107.5701" y="-116.8" font-family="Courier,monospace" font-size="14.00" fill="#ffffff"> &#160;&#160;&#160;&#160;&#160;&#160;&#160;&#160;&#160;&#160;&#160;</text>
<text text-anchor="middle" x="25.2041" y="-134.6342" font-family="Courier,monospace" font-size="14.00" fill="#ffffff">Eth0/0</text>
<text text-anchor="middle" x="53.8324" y="-74.0171" font-family="Courier,monospace" font-size="14.00" fill="#ffffff">Eth0/1</text>
</g>
<!-- R5 -->
<g id="node3" class="node">
<title>R5</title>
<polygon fill="#006699" stroke="#006699" points="217.0585,-218 141.2654,-218 141.2654,-146 217.0585,-146 217.0585,-218"/>
<text text-anchor="middle" x="179.1619" y="-177.8" font-family="Helvetica,sans-Serif" font-size="14.00" fill="#ffffff">R5</text>
</g>
<!-- R3&#45;&#45;R5 -->
<g id="edge2" class="edge">
<title>R3&#45;&#45;R5</title>
<path fill="none" stroke="#00ff00" stroke-dasharray="5,2" d="M146.3764,-96.1423C150.3195,-101.9207 154.0659,-107.983 157.1619,-114 162.2714,-123.9298 166.5073,-135.2822 169.8525,-145.8297"/>
<text text-anchor="middle" x="212.5701" y="-116.8" font-family="Courier,monospace" font-size="14.00" fill="#ffffff"> &#160;&#160;&#160;&#160;&#160;&#160;&#160;&#160;&#160;&#160;&#160;</text>
<text text-anchor="middle" x="144.6484" y="-134.6297" font-family="Courier,monospace" font-size="14.00" fill="#ffffff">Eth0/0</text>
<text text-anchor="middle" x="121.1723" y="-98.9423" font-family="Courier,monospace" font-size="14.00" fill="#ffffff">Eth0/2</text>
</g>
</g>
</svg>
